<svg width="41" height="41" viewBox="0 0 41 41" fill="none" xmlns="http://www.w3.org/2000/svg">
<mask id="mask0_424_1603" style="mask-type:alpha" maskUnits="userSpaceOnUse" x="0" y="0" width="41" height="41">
<rect width="41" height="41" fill="#D9D9D9"/>
</mask>
<g mask="url(#mask0_424_1603)">
<path d="M20.5 29.8958C22.6354 29.8958 24.4508 29.1487 25.9461 27.6545C27.4403 26.1591 28.1875 24.3438 28.1875 22.2083C28.1875 20.0729 27.4403 18.2575 25.9461 16.7622C24.4508 15.2679 22.6354 14.5208 20.5 14.5208C18.3645 14.5208 16.5492 15.2679 15.0538 16.7622C13.5596 18.2575 12.8125 20.0729 12.8125 22.2083C12.8125 24.3438 13.5596 26.1591 15.0538 27.6545C16.5492 29.1487 18.3645 29.8958 20.5 29.8958ZM20.5 26.4792C19.3041 26.4792 18.2934 26.0663 17.4677 25.2406C16.642 24.4149 16.2291 23.4042 16.2291 22.2083C16.2291 21.0125 16.642 20.0017 17.4677 19.176C18.2934 18.3503 19.3041 17.9375 20.5 17.9375C21.6958 17.9375 22.7066 18.3503 23.5322 19.176C24.3579 20.0017 24.7708 21.0125 24.7708 22.2083C24.7708 23.4042 24.3579 24.4149 23.5322 25.2406C22.7066 26.0663 21.6958 26.4792 20.5 26.4792ZM6.83329 35.875C5.89371 35.875 5.08965 35.5407 4.42113 34.8722C3.75146 34.2025 3.41663 33.3979 3.41663 32.4583V11.9583C3.41663 11.0188 3.75146 10.2147 4.42113 9.54617C5.08965 8.8765 5.89371 8.54167 6.83329 8.54167H12.2145L15.375 5.125H25.625L28.7854 8.54167H34.1666C35.1062 8.54167 35.9108 8.8765 36.5805 9.54617C37.249 10.2147 37.5833 11.0188 37.5833 11.9583V32.4583C37.5833 33.3979 37.249 34.2025 36.5805 34.8722C35.9108 35.5407 35.1062 35.875 34.1666 35.875H6.83329ZM34.1666 32.4583V11.9583H27.2479L24.1302 8.54167H16.8698L13.752 11.9583H6.83329V32.4583H34.1666Z" fill="#ABD8B2"/>
</g>
</svg>
