<svg width="35" height="32" viewBox="0 0 35 32" fill="none" xmlns="http://www.w3.org/2000/svg">
<g clip-path="url(#clip0_424_1838)">
<path d="M24.7781 0.753479C21.8639 0.753479 19.2456 2.09465 17.5 4.21943C15.7544 2.10972 13.1509 0.753479 10.2219 0.753479C4.98522 0.753479 0.739655 5.07838 0.739655 10.4129C0.739655 15.7475 4.05326 18.3394 8.01776 21.8355C10.9911 24.4576 14.5562 27.7879 17.5 30.5607C20.5473 27.7126 24.2012 24.2165 26.8787 22.0163C30.9468 18.6559 34.2604 15.7626 34.2604 10.4129C34.2604 5.06331 30.0148 0.753479 24.7781 0.753479Z" stroke="#ABD8B2" stroke-miterlimit="10"/>
<g clip-path="url(#clip1_424_1838)">
<path d="M25.0943 0.853638C22.0442 0.853638 19.3181 2.22872 17.5 4.38692C15.6819 2.22872 12.9558 0.853638 9.90566 0.853638C4.43485 0.853638 0 5.27076 0 10.7197C0 16.1687 3.46285 18.8202 7.60466 22.3802C10.7126 25.0522 14.4251 28.4643 17.5 31.2905C20.6863 28.3759 24.5041 24.8138 27.2963 22.5611C31.5475 19.1326 35 16.1707 35 10.7218C35 5.27282 30.5652 0.853638 25.0943 0.853638Z" fill="#ABD8B2"/>
</g>
</g>
<defs>
<clipPath id="clip0_424_1838">
<rect width="35" height="31.5854" fill="white"/>
</clipPath>
<clipPath id="clip1_424_1838">
<rect width="35" height="30.4348" fill="white" transform="translate(0 0.853638)"/>
</clipPath>
</defs>
</svg>
