<svg width="35" height="35" viewBox="0 0 35 35" fill="none" xmlns="http://www.w3.org/2000/svg">
<mask id="mask0_681_1629" style="mask-type:alpha" maskUnits="userSpaceOnUse" x="0" y="0" width="35" height="35">
<rect width="35" height="35" fill="#D9D9D9"/>
</mask>
<g mask="url(#mask0_681_1629)">
<path d="M2.9165 14.5833C2.9165 12.4444 3.34817 10.4212 4.2115 8.51374C5.07386 6.60527 6.30713 4.95832 7.9113 3.57291L9.98942 5.61457C8.67692 6.75693 7.65609 8.09957 6.92692 9.64249C6.19775 11.1864 5.83317 12.8333 5.83317 14.5833H2.9165ZM29.1665 14.5833C29.1665 12.8333 28.8019 11.1864 28.0728 9.64249C27.3436 8.09957 26.3228 6.75693 25.0103 5.61457L27.0884 3.57291C28.6925 4.95832 29.9263 6.60527 30.7896 8.51374C31.652 10.4212 32.0832 12.4444 32.0832 14.5833H29.1665ZM5.83317 27.7083V24.7917H8.74984V14.5833C8.74984 12.566 9.35748 10.7732 10.5728 9.20499C11.788 7.63777 13.3679 6.6111 15.3123 6.12499V5.10416C15.3123 4.49652 15.5253 3.98027 15.9511 3.55541C16.3759 3.12957 16.8922 2.91666 17.4998 2.91666C18.1075 2.91666 18.6237 3.12957 19.0486 3.55541C19.4744 3.98027 19.6873 4.49652 19.6873 5.10416V6.12499C21.6318 6.6111 23.2116 7.63777 24.4269 9.20499C25.6422 10.7732 26.2498 12.566 26.2498 14.5833V24.7917H29.1665V27.7083H5.83317ZM17.4998 32.0833C16.6978 32.0833 16.0114 31.798 15.4407 31.2273C14.869 30.6556 14.5832 29.9687 14.5832 29.1667H20.4165C20.4165 29.9687 20.1312 30.6556 19.5605 31.2273C18.9888 31.798 18.3019 32.0833 17.4998 32.0833ZM11.6665 24.7917H23.3332V14.5833C23.3332 12.9792 22.762 11.6059 21.6196 10.4635C20.4773 9.32117 19.104 8.74999 17.4998 8.74999C15.8957 8.74999 14.5224 9.32117 13.38 10.4635C12.2377 11.6059 11.6665 12.9792 11.6665 14.5833V24.7917Z" fill="#ABD8B2"/>
</g>
</svg>
